<?xml version="1.0" encoding="UTF-8"?>
<svg id="Layer_2" data-name="Layer 2" xmlns="http://www.w3.org/2000/svg" viewBox="0 0 1600 1600">
  <defs>
    <style>
      .cls-1 {
        fill: #0f52ba;
      }
    </style>
  </defs>
  <g id="Layer_1-2" data-name="Layer 1">
    <path class="cls-1" d="M1400,400c-110.55,0-200-89.45-200-200S1110.46,0,1000,0H200C89.54,0,0,89.54,0,200v800c0,110.46,89.54,200,200,200s200,89.45,200,200,89.54,200,200,200h800c110.46,0,200-89.54,200-200v-800c0-110.46-89.54-200-200-200ZM1200,500v500c0,110.46-89.54,200-200,200H300c55.23,0,100-44.77,100-100v-500c0-110.46,89.54-200,200-200h700c-55.23,0-100,44.77-100,100Z"/>
  </g>
</svg>